<?xml version="1.0" encoding="UTF-8" standalone="no"?>
<!DOCTYPE svg PUBLIC "-//W3C//DTD SVG 1.1//EN" "http://www.w3.org/Graphics/SVG/1.1/DTD/svg11.dtd">
<svg xmlns="http://www.w3.org/2000/svg" version="1.1" viewBox="0.00 0.00 192.00 192.00">
<g stroke-width="2.00" fill="none" stroke-linecap="butt">
<path stroke="#9bb3e6" vector-effect="non-scaling-stroke" d="
  M 34.15 132.20
  L 21.18 170.49
  A 0.27 0.26 -89.4 0 0 21.51 170.83
  L 61.02 158.26
  A 1.87 1.85 -39.5 0 1 62.44 158.39
  C 118.87 188.07 184.88 137.74 168.54 75.43
  C 154.18 20.63 84.71 2.93 45.09 42.59
  C 21.70 66.01 16.80 102.23 34.05 131.21
  Q 34.33 131.68 34.15 132.20"
/>
<path stroke="#9bb3e6" vector-effect="non-scaling-stroke" d="
  M 90.64 33.00
  C 62.00 36.20 38.97 58.58 35.77 87.42
  A 0.73 0.72 -87.1 0 0 36.49 88.22
  L 90.50 88.20
  A 0.70 0.70 0.0 0 0 91.20 87.50
  L 91.20 33.50
  Q 91.20 32.93 90.64 33.00"
/>
<path stroke="#9bb3e6" vector-effect="non-scaling-stroke" d="
  M 158.91 87.70
  C 155.97 58.86 132.46 35.70 103.64 32.98
  A 0.50 0.49 -87.4 0 0 103.10 33.48
  L 103.09 87.54
  A 0.71 0.71 0.0 0 0 103.80 88.25
  L 158.47 88.19
  A 0.44 0.44 0.0 0 0 158.91 87.70"
/>
<path stroke="#9bb3e6" vector-effect="non-scaling-stroke" d="
  M 47.07 130.62
  L 39.72 152.20
  A 0.38 0.38 0.0 0 0 40.20 152.69
  L 62.78 145.50
  Q 63.30 145.33 63.75 145.62
  Q 76.11 153.54 90.74 155.17
  A 0.42 0.42 0.0 0 0 91.20 154.75
  L 91.20 100.76
  A 0.69 0.68 0.0 0 0 90.51 100.08
  L 36.29 100.08
  Q 35.73 100.08 35.79 100.64
  Q 37.59 116.62 46.93 129.65
  A 1.07 1.07 0.0 0 1 47.07 130.62"
/>
<path stroke="#9bb3e6" vector-effect="non-scaling-stroke" d="
  M 103.81 155.20
  C 132.99 152.13 155.33 129.60 158.93 100.60
  A 0.43 0.43 0.0 0 0 158.50 100.11
  L 103.77 100.04
  A 0.69 0.69 0.0 0 0 103.08 100.73
  L 103.08 154.54
  A 0.67 0.66 -2.8 0 0 103.81 155.20"
/>
</g>
<path fill="#3666cd" d="
  M 0.00 0.00
  L 192.00 0.00
  L 192.00 192.00
  L 0.00 192.00
  L 0.00 0.00
  Z
  M 34.15 132.20
  L 21.18 170.49
  A 0.27 0.26 -89.4 0 0 21.51 170.83
  L 61.02 158.26
  A 1.87 1.85 -39.5 0 1 62.44 158.39
  C 118.87 188.07 184.88 137.74 168.54 75.43
  C 154.18 20.63 84.71 2.93 45.09 42.59
  C 21.70 66.01 16.80 102.23 34.05 131.21
  Q 34.33 131.68 34.15 132.20
  Z"
/>
<path fill="#ffffff" d="
  M 34.05 131.21
  C 16.80 102.23 21.70 66.01 45.09 42.59
  C 84.71 2.93 154.18 20.63 168.54 75.43
  C 184.88 137.74 118.87 188.07 62.44 158.39
  A 1.87 1.85 -39.5 0 0 61.02 158.26
  L 21.51 170.83
  A 0.27 0.26 -89.4 0 1 21.18 170.49
  L 34.15 132.20
  Q 34.33 131.68 34.05 131.21
  Z
  M 90.64 33.00
  C 62.00 36.20 38.97 58.58 35.77 87.42
  A 0.73 0.72 -87.1 0 0 36.49 88.22
  L 90.50 88.20
  A 0.70 0.70 0.0 0 0 91.20 87.50
  L 91.20 33.50
  Q 91.20 32.93 90.64 33.00
  Z
  M 158.91 87.70
  C 155.97 58.86 132.46 35.70 103.64 32.98
  A 0.50 0.49 -87.4 0 0 103.10 33.48
  L 103.09 87.54
  A 0.71 0.71 0.0 0 0 103.80 88.25
  L 158.47 88.19
  A 0.44 0.44 0.0 0 0 158.91 87.70
  Z
  M 47.07 130.62
  L 39.72 152.20
  A 0.38 0.38 0.0 0 0 40.20 152.69
  L 62.78 145.50
  Q 63.30 145.33 63.75 145.62
  Q 76.11 153.54 90.74 155.17
  A 0.42 0.42 0.0 0 0 91.20 154.75
  L 91.20 100.76
  A 0.69 0.68 0.0 0 0 90.51 100.08
  L 36.29 100.08
  Q 35.73 100.08 35.79 100.64
  Q 37.59 116.62 46.93 129.65
  A 1.07 1.07 0.0 0 1 47.07 130.62
  Z
  M 103.81 155.20
  C 132.99 152.13 155.33 129.60 158.93 100.60
  A 0.43 0.43 0.0 0 0 158.50 100.11
  L 103.77 100.04
  A 0.69 0.69 0.0 0 0 103.08 100.73
  L 103.08 154.54
  A 0.67 0.66 -2.8 0 0 103.81 155.20
  Z"
/>
<path fill="#3666cd" d="
  M 35.77 87.42
  C 38.97 58.58 62.00 36.20 90.64 33.00
  Q 91.20 32.93 91.20 33.50
  L 91.20 87.50
  A 0.70 0.70 0.0 0 1 90.50 88.20
  L 36.49 88.22
  A 0.73 0.72 -87.1 0 1 35.77 87.42
  Z"
/>
<path fill="#3666cd" d="
  M 103.64 32.98
  C 132.46 35.70 155.97 58.86 158.91 87.70
  A 0.44 0.44 0.0 0 1 158.47 88.19
  L 103.80 88.25
  A 0.71 0.71 0.0 0 1 103.09 87.54
  L 103.10 33.48
  A 0.50 0.49 -87.4 0 1 103.64 32.98
  Z"
/>
<path fill="#3666cd" d="
  M 46.93 129.65
  Q 37.59 116.62 35.79 100.64
  Q 35.73 100.08 36.29 100.08
  L 90.51 100.08
  A 0.69 0.68 0.0 0 1 91.20 100.76
  L 91.20 154.75
  A 0.42 0.42 0.0 0 1 90.74 155.17
  Q 76.11 153.54 63.75 145.62
  Q 63.30 145.33 62.78 145.50
  L 40.20 152.69
  A 0.38 0.38 0.0 0 1 39.72 152.20
  L 47.07 130.62
  A 1.07 1.07 0.0 0 0 46.93 129.65
  Z"
/>
<path fill="#3666cd" d="
  M 158.93 100.60
  C 155.33 129.60 132.99 152.13 103.81 155.20
  A 0.67 0.66 -2.8 0 1 103.08 154.54
  L 103.08 100.73
  A 0.69 0.69 0.0 0 1 103.77 100.04
  L 158.50 100.11
  A 0.43 0.43 0.0 0 1 158.93 100.60
  Z"
/>
</svg>
